<?xml version="1.0" encoding="utf-8"?>
<!-- Generator: Adobe Illustrator 22.1.0, SVG Export Plug-In . SVG Version: 6.00 Build 0)  -->
<svg version="1.1" xmlns="http://www.w3.org/2000/svg" xmlns:xlink="http://www.w3.org/1999/xlink" x="0px" y="0px"
	 viewBox="0 0 283.7 99.1" style="enable-background:new 0 0 283.7 99.1;" xml:space="preserve">
<style type="text/css">
	.st0{fill:#1C1D1B;}
	.st1{fill:#5580AE;}
	.st2{fill:#EDBB65;}
	.st3{fill:#DC547E;}
	.st4{fill:#51B1B0;}
	.st5{font-family:'FuturaPT-HeavyOblique';}
	.st6{font-size:21px;}
	.st7{font-family:'FuturaPT-Heavy';}
</style>
<g id="레이어_1">
	<g>
		<rect x="166.8" y="52.1" class="st0" width="2.1" height="25.9"/>
	</g>
	<g>
		<polygon class="st1" points="90.2,26 116.3,0 90.2,0 		"/>
		<polygon class="st1" points="90.2,52.1 90.2,78.2 116.3,78.2 		"/>
		<polygon class="st2" points="142.3,52.1 116.3,78.2 142.3,78.2 		"/>
		<rect x="116.3" y="0" class="st3" width="26.1" height="26.1"/>
		<polygon class="st4" points="142.3,26.1 116.3,26.1 90.2,52.2 116.3,78.2 116.3,52.2 		"/>
	</g>
	<g>
		<polygon class="st1" points="1,73.3 53.1,73.3 27.1,52.2 		"/>
		<polygon class="st2" points="53.1,73.2 79.2,52.1 27.1,52.1 		"/>
		<polygon class="st3" points="53.1,73.3 53.1,99.3 79.2,99.3 79.2,52.2 		"/>
		<polygon class="st3" points="1,52.2 1,73.3 27.1,52.2 		"/>
		<polygon class="st4" points="79.2,0 53.1,0 1,52.2 27.1,52.2 		"/>
	</g>
</g>
<g id="레이어_3">
	<text transform="matrix(1 0 0 1 177.1586 71.3861)" class="st5 st6">SEOUL</text>
	<text transform="matrix(1 0 0 1 177.1586 94.0527)" class="st7 st6">Dashboard</text>
</g>
</svg>
